<svg width="151" height="139" viewBox="0 0 151 139" fill="none" xmlns="http://www.w3.org/2000/svg">
<path d="M119.301 137.077C120.217 136.436 120.95 135.702 120.95 135.428C120.95 135.153 118.293 133.595 115.086 132.037C93.8281 121.225 79.6256 100.975 75.5939 75.7772C75.2274 73.7613 74.6776 72.5701 74.1278 72.9367C73.4864 73.3032 74.0178 75.8504 74.2011 74.9341C74.9341 71.0857 75.8688 70.0045 77.793 76.6934C80.3586 85.3066 84.8484 95.3858 88.9717 101.433C96.1188 111.879 109.497 123.333 120.767 128.647C126.173 131.213 126.54 131.304 128.006 129.838C129.838 128.006 129.288 127.456 123.699 125.074C118.11 122.783 108.58 116.552 103.266 111.787C94.1946 103.724 86.681 91.629 81.8247 77.2432C80.5419 73.3032 78.7093 68.6301 77.793 66.8891C76.5102 64.6901 76.052 61.7579 76.052 57.2681C76.052 52.9615 75.5939 50.121 74.6776 48.9299C73.3948 47.2806 73.3948 47.2806 73.3032 49.4796C72.9367 63.1324 69.5464 76.9683 63.4072 89.3382C54.8857 106.473 38.1177 121.225 20.7082 126.906C18.9672 127.456 18.9672 127.456 20.7998 129.288L22.724 131.213L29.2296 127.914C48.1968 118.385 61.9412 103.907 68.5385 86.2229C72.845 74.8609 72.6618 75.2274 73.1199 78.0679C74.0362 85.1233 66.8891 101.8 58.5509 112.245C51.129 121.317 44.0735 126.998 33.4446 132.221L27.3054 135.244L29.5962 136.802C31.8869 138.268 32.1618 138.176 38.1177 134.878C53.6029 126.265 67.2557 110.688 72.845 95.0192L74.8609 89.4299L76.3269 94.3778C80.3586 107.939 95.0192 125.348 109.68 134.053C113.712 136.436 117.193 138.36 117.377 138.36C117.56 138.36 118.476 137.718 119.301 137.077Z" fill="#AF4E2D"/>
<path d="M135.428 120.859C136.069 119.759 136.527 118.843 136.344 118.659C136.161 118.476 132.679 117.102 128.647 115.544C105.007 106.381 87.2308 83.1075 81.4582 53.6946C80.4503 48.5633 79.2591 43.707 78.7093 42.8824C77.1516 39.8586 76.0521 28.8631 76.0521 14.4774C76.0521 0.733037 75.9604 5.28245e-06 74.3111 5.42664e-06C72.5702 5.57884e-06 72.4785 0.824666 72.3869 20.3416C72.3869 38.3925 72.112 41.0498 70.5543 44.7149C69.5464 46.914 68.2636 51.4955 67.7138 54.8857C64.6901 73.8529 54.0611 93.0034 41.0498 103.266C32.3451 110.138 28.2218 112.704 20.1584 115.911C13.103 118.751 12.9197 118.843 14.2942 120.767C15.3021 122.325 16.0351 122.508 17.2263 121.867C18.051 121.408 21.1664 119.942 24.0069 118.751C37.0182 113.162 49.6629 102.533 57.2682 90.8043C65.5148 78.0679 68.9967 69.0882 70.5543 56.81C71.1041 53.0532 72.2037 48.1968 73.0283 45.9977C74.4944 42.0577 74.586 42.0577 75.6856 44.1652C76.2353 45.2647 77.06 48.9299 77.4265 52.2285C79.8089 74.2195 95.9356 100.792 114.445 113.253C117.927 115.636 132.679 122.783 134.053 122.783C134.145 122.783 134.786 121.958 135.428 120.859Z" fill="#AF4E2D"/>
<path d="M141.109 110.779C141.75 109.771 142.025 108.764 141.842 108.672C141.658 108.489 138.635 107.481 134.969 106.29C118.568 101.158 103.449 87.6889 94.836 70.7375C86.8642 55.069 83.474 39.6753 83.0158 17.6844C82.7409 2.56559 82.5577 1.37441 81 1.09952C79.3507 0.824637 79.259 1.55767 79.8088 19.8835C80.3586 37.0181 80.6335 40.0418 83.1074 49.4796C87.9638 68.4468 94.1029 80.3586 104.824 91.4457C113.986 101.067 122.966 107.023 134.603 110.963C140.65 113.07 139.917 113.07 141.109 110.779Z" fill="#AF4E2D"/>
<path d="M16.5849 110.046C25.1981 106.473 32.3451 102.258 38.9424 97.0351C59.7422 80.3586 70.5544 50.9457 70.5544 11.362C70.5544 0.64141 70.4628 7.6374e-06 68.7218 7.7896e-06C66.9809 7.9418e-06 66.8892 0.641411 66.8892 13.5611C66.7976 51.4039 56.2603 78.526 35.2772 94.9276C28.8632 99.8756 17.5929 105.74 11.5454 107.298C6.87228 108.489 6.96391 108.397 8.24671 110.963C9.43789 113.07 9.163 113.162 16.5849 110.046Z" fill="#AF4E2D"/>
<path d="M145.049 101.067C145.415 100.792 145.69 99.7839 145.69 98.9592C145.69 97.8597 144.224 97.2183 140.192 96.3936C129.93 94.1945 116.46 85.4898 108.305 75.6855C101.433 67.4389 95.1109 53.6945 92.0871 40.5916C90.0713 32.1617 88.6969 15.0271 89.3383 8.15495C89.888 2.56558 89.7964 2.01581 88.0554 1.55766C86.1312 1.09952 86.1312 1.3744 86.1312 15.1187C86.1312 34.6357 89.5215 50.854 96.4853 64.5984C104.824 81.1832 119.851 94.3778 136.436 99.7839C142.758 101.891 144.132 102.075 145.049 101.067Z" fill="#AF4E2D"/>
<path d="M12.3701 99.9672C34.5443 91.9955 50.2128 75.9604 57.6348 53.603C61.8497 40.6833 63.3158 31.8869 63.8655 15.6686C64.4153 1.37447 64.3237 0.733066 62.6744 1.09958C61.1167 1.37447 60.8418 2.65727 60.292 16.0351C59.1925 44.715 52.7784 63.7738 39.6755 77.7014C31.4289 86.4061 15.5771 95.7523 7.23886 96.8518C4.12348 97.31 3.5737 97.6765 3.84859 99.3258C4.2151 101.8 6.59746 101.983 12.3701 99.9672Z" fill="#AF4E2D"/>
<path d="M148.439 88.5135C148.439 86.5893 147.889 86.3144 144.041 85.7647C141.567 85.4898 136.161 83.5656 131.946 81.4581C122.05 76.6934 111.054 66.0644 106.106 56.3518C99.6924 43.8902 96.2105 29.138 95.9356 13.1945C95.7524 4.76467 95.2026 2.84046 93.0951 2.74883C92.637 2.74883 92.5454 9.07123 92.8203 17.2262C93.37 34.1776 95.111 41.8744 101.158 54.6108C106.473 65.6979 111.879 72.7534 120.217 78.9841C128.189 85.0316 130.388 86.2228 138.726 88.7884C146.973 91.354 148.439 91.2624 148.439 88.5135Z" fill="#AF4E2D"/>
<path d="M10.0792 88.9717C39.2172 79.5339 55.5272 54.1527 57.3597 15.3936C58.0011 2.84046 58.0011 2.74883 56.0769 2.74883C54.1527 2.74883 54.0611 3.20698 54.0611 10.8122C54.0611 35.6436 46.5475 57.0848 33.1697 70.2794C25.4729 77.8846 13.1946 84.7568 5.49776 85.7647C1.46609 86.3144 0.916312 86.5893 0.916312 88.5135C0.916313 91.1708 2.93215 91.354 10.0792 88.9717Z" fill="#AF4E2D"/>
<path d="M150.272 77.5181C150.272 75.5939 149.722 75.2273 145.965 74.6776C130.663 72.3868 114.353 58.0927 108.122 41.4163C105.19 33.7194 102.624 19.8835 102.624 12.3699C102.624 5.68097 102.075 4.58143 98.7761 4.58143C97.0351 4.58143 98.7761 21.0746 101.617 32.2534C105.832 48.9298 112.337 59.9253 122.6 67.9887C129.105 73.2115 135.519 76.4185 142.666 78.2511C149.905 80.1753 150.272 80.0837 150.272 77.5181Z" fill="#AF4E2D"/>
<path d="M8.24665 77.9762C20.7082 73.9446 31.2455 66.0645 38.3009 55.5271C45.6313 44.6233 51.3123 23.8235 51.3123 8.15497C51.3123 4.39818 51.129 3.84841 49.5713 4.30655C48.1052 4.67307 47.7387 5.95587 47.189 13.1029C45.8145 32.2534 40.3168 48.2884 31.9786 58.0011C24.8315 66.3394 9.52946 75.1357 2.29077 75.1357C0.458193 75.1357 4.79674e-05 75.5939 4.81276e-05 77.4265C4.83679e-05 80.1753 1.19122 80.267 8.24665 77.9762Z" fill="#AF4E2D"/>
<path d="M149.172 66.1561C148.897 64.0487 148.347 63.5905 144.774 63.0407C132.312 60.9333 119.759 49.6629 111.421 33.0781C108.214 26.7557 109.68 27.7636 115.911 36.1935C123.241 46.0894 134.695 54.0611 143.674 55.5272C147.431 56.0769 147.523 56.0769 146.79 54.0611C146.332 52.7783 144.499 51.5871 141.475 50.4876C125.623 45.1731 111.879 29.5962 108.947 13.4695C108.122 8.79641 107.389 7.33034 106.015 6.96383C104.365 6.59731 104.274 6.8722 104.824 11.9118C105.19 14.9355 106.106 19.517 106.931 22.1742C107.847 24.8315 108.397 28.5883 108.214 30.4208C107.756 37.1098 116.46 51.2206 125.257 57.9095C130.571 61.9412 139.918 66.431 145.507 67.7138C149.447 68.5385 149.447 68.5385 149.172 66.1561Z" fill="#AF4E2D"/>
<path d="M5.49784 67.3473C19.8836 63.5905 32.4367 52.9616 39.1257 39.2172C41.2331 34.819 41.8745 30.2376 40.4085 30.2376C40.0419 30.2376 38.301 32.8032 36.6517 36.0102C28.5883 51.129 19.3338 59.284 6.23087 62.6742C2.93223 63.4989 1.28291 64.4152 0.824765 65.7896C-0.183153 68.3552 0.641507 68.6301 5.49784 67.3473Z" fill="#AF4E2D"/>
<path d="M8.42989 54.9774C17.776 52.1369 27.3971 44.8983 33.6279 36.2851C35.5521 33.7195 37.6595 30.9707 38.4842 30.2376C40.9582 27.7636 43.1573 21.8078 44.2568 14.5691C44.8066 10.629 44.9898 7.14712 44.715 6.87224C43.2489 5.31455 41.4163 7.97178 40.3168 13.4695C38.4842 22.8157 33.6279 31.5204 26.2059 38.9424C19.6086 45.5397 10.0792 51.3123 5.86428 51.3123C4.48985 51.3123 3.66519 52.0453 3.29867 53.6946C2.93215 55.0691 2.7489 56.2602 2.93215 56.3519C3.11541 56.5351 5.58939 55.8937 8.42989 54.9774Z" fill="#AF4E2D"/>
<path d="M14.2943 40.8665C25.6563 35.4604 32.3452 27.7636 36.6518 15.1188C37.6597 12.2783 38.0262 10.0792 37.4764 10.0792C35.2773 10.0792 33.1699 12.0034 32.7117 14.569C31.8871 18.6923 25.1065 28.8631 21.0749 32.0701C19.1507 33.6278 15.6688 35.7353 13.2864 36.7432C10.5375 37.9344 8.79658 39.4921 8.15518 40.9581C7.69703 42.2409 7.42215 43.4321 7.6054 43.6154C7.78866 43.7986 10.8124 42.6074 14.2943 40.8665Z" fill="#AF4E2D"/>
<path d="M141.292 40.3167C140.467 38.8507 139.093 37.5679 138.268 37.5679C136.71 37.5679 129.838 33.2613 125.715 29.7794C122.6 27.2138 118.568 21.0747 116.735 16.4016C114.353 10.1708 110.138 7.6052 111.329 13.1029C113.528 23.0905 123.882 35.552 133.962 40.3167C137.169 41.8744 140.467 43.0656 141.292 43.0656C142.758 43.0656 142.758 42.8823 141.292 40.3167Z" fill="#AF4E2D"/>
<path d="M21.9912 23.0905C24.2819 20.7082 26.7559 17.9593 27.4889 17.043C28.7717 15.3937 28.7717 15.3937 27.0308 16.31C25.2898 17.2263 21.9912 20.5249 17.9595 25.4729C14.7525 29.2297 17.8679 27.4887 21.9912 23.0905Z" fill="#AF4E2D"/>
<path d="M130.938 25.0147C128.922 22.4491 123.424 17.4095 121.408 16.31C120.401 15.7602 122.05 17.8677 125.074 20.9831C130.113 26.2059 133.778 28.6799 130.938 25.0147Z" fill="#AF4E2D"/>
</svg>
